HIERARCHY
ROOT Hips
{
	OFFSET 0.000000 0.000000 0.000000
	CHANNELS 6 Xposition Yposition Zposition Xrotation Yrotation Zrotation
	JOINT LeftUpLeg_virtual
	{
		OFFSET 0.000000 0.000000 0.000000
		CHANNELS 3 Xrotation Yrotation Zrotation
		JOINT LeftUpLeg
		{
			OFFSET 11.394100 -6.187798 -0.413800
			CHANNELS 3 Xrotation Yrotation Zrotation
			JOINT LeftLeg
			{
				OFFSET 0.430247 -32.302673 3.732800
				CHANNELS 3 Xrotation Yrotation Zrotation
				JOINT LeftFoot
				{
					OFFSET -0.430247 -48.264931 -6.423300
					CHANNELS 3 Xrotation Yrotation Zrotation
					JOINT LeftToeBase
					{
						OFFSET 4.230900 -16.068199 23.438400
						CHANNELS 3 Xrotation Yrotation Zrotation
						JOINT LeftToe_End
						{
							OFFSET 4.510700 0.695400 19.974600
							CHANNELS 3 Xrotation Yrotation Zrotation
							End Site
							{
								OFFSET 0 0 0
							}
						}
					}
				}
			}
		}
	}
	JOINT RightUpLeg_virtual
	{
		OFFSET 0.000000 0.000000 0.000000
		CHANNELS 3 Xrotation Yrotation Zrotation
		JOINT RightUpLeg
		{
			OFFSET -11.333700 -6.187798 -0.413800
			CHANNELS 3 Xrotation Yrotation Zrotation
			JOINT RightLeg
			{
				OFFSET -0.430392 -32.302628 3.733000
				CHANNELS 3 Xrotation Yrotation Zrotation
				JOINT RightFoot
				{
					OFFSET 0.430392 -48.264973 -6.423500
					CHANNELS 3 Xrotation Yrotation Zrotation
					JOINT RightToeBase
					{
						OFFSET -4.230900 -16.068199 23.438400
						CHANNELS 3 Xrotation Yrotation Zrotation
						JOINT RightToe_End
						{
							OFFSET -4.510700 0.695400 19.974600
							CHANNELS 3 Xrotation Yrotation Zrotation
							End Site
							{
								OFFSET 0 0 0
							}
						}
					}
				}
			}
		}
	}
	JOINT Spine_virtual
	{
		OFFSET 0.000000 0.000000 0.000000
		CHANNELS 3 Xrotation Yrotation Zrotation
		JOINT Spine
		{
			OFFSET -0.002400 12.777504 0.315300
			CHANNELS 3 Xrotation Yrotation Zrotation
			JOINT Spine1
			{
				OFFSET -0.002067 5.816869 0.032633
				CHANNELS 3 Xrotation Yrotation Zrotation
				JOINT Spine1_split
				{
					OFFSET -0.002067 5.816869 0.032633
					CHANNELS 3 Xrotation Yrotation Zrotation
					JOINT Spine2
					{
						OFFSET -0.002067 5.816869 0.032633
						CHANNELS 3 Xrotation Yrotation Zrotation
						JOINT Neck_virtual
						{
							OFFSET 0.000000 0.000000 0.000000
							CHANNELS 3 Xrotation Yrotation Zrotation
							JOINT Neck
							{
								OFFSET -0.003700 21.199493 -0.826900
								CHANNELS 3 Xrotation Yrotation Zrotation
								JOINT Head
								{
									OFFSET 0.000000 20.442200 4.834800
									CHANNELS 3 Xrotation Yrotation Zrotation
									JOINT HeadTop_End
									{
										OFFSET 0.000000 34.668396 4.968400
										CHANNELS 3 Xrotation Yrotation Zrotation
										End Site
										{
											OFFSET 0 0 0
										}
									}
								}
							}
						}
						JOINT LeftShoulder_virtual
						{
							OFFSET 0.000000 0.000000 0.000000
							CHANNELS 3 Xrotation Yrotation Zrotation
							JOINT LeftShoulder
							{
								OFFSET 3.288150 8.794197 -1.372250
								CHANNELS 3 Xrotation Yrotation Zrotation
								JOINT LeftShoulder_split
								{
									OFFSET 3.288150 8.794197 -1.372250
									CHANNELS 3 Xrotation Yrotation Zrotation
									JOINT LeftArm
									{
										OFFSET 11.953299 -2.279007 -0.146200
										CHANNELS 3 Xrotation Yrotation Zrotation
										JOINT LeftForeArm
										{
											OFFSET 18.448900 0.000000 0.000000
											CHANNELS 3 Xrotation Yrotation Zrotation
											JOINT LeftHand
											{
												OFFSET 29.527798 0.000000 0.000000
												CHANNELS 3 Xrotation Yrotation Zrotation
												End Site
												{
													OFFSET 0 0 0
												}
											}
										}
									}
								}
							}
						}
						JOINT RightShoulder_virtual
						{
							OFFSET 0.000000 0.000000 0.000000
							CHANNELS 3 Xrotation Yrotation Zrotation
							JOINT RightShoulder
							{
								OFFSET -3.249400 8.794197 -1.372250
								CHANNELS 3 Xrotation Yrotation Zrotation
								JOINT RightShoulder_split
								{
									OFFSET -3.249400 8.794197 -1.372250
									CHANNELS 3 Xrotation Yrotation Zrotation
									JOINT RightArm
									{
										OFFSET -11.953299 -2.279007 -0.146200
										CHANNELS 3 Xrotation Yrotation Zrotation
										JOINT RightForeArm
										{
											OFFSET -18.448900 0.000000 0.000000
											CHANNELS 3 Xrotation Yrotation Zrotation
											JOINT RightHand
											{
												OFFSET -29.527802 0.000000 0.000000
												CHANNELS 3 Xrotation Yrotation Zrotation
												End Site
												{
													OFFSET 0 0 0
												}
											}
										}
									}
								}
							}
						}
					}
				}
			}
		}
	}
}
MOTION
Frames: 9
Frame Time: 0.03333333
0.659189 99.083771 -2.098598 0.000000 0.000000 0.000000 -5.580603 -5.572336 2.599296 -20.721858 9.663404 8.551704 19.443655 7.785412 1.631927 6.839804 -0.001182 -4.297954 0.580159 -0.016026 -1.752328 0.000000 0.000000 0.000000 -5.331433 -4.571741 2.869391 0.654398 -14.798158 -5.799828 21.335332 -9.636162 -5.206947 -15.862353 -6.886628 8.589023 -4.820924 0.335159 -0.451658 0.000000 0.000000 0.000000 -6.082966 -5.922773 2.585337 5.164622 1.468903 -1.261806 1.048551 0.402986 -0.419991 0.752379 0.322118 -0.021865 0.000000 0.000000 0.000000 1.096710 0.787276 -0.643199 1.411499 5.555611 0.337187 4.234345 -10.480552 3.213625 0.000000 0.000000 0.000000 0.939846 0.776159 -0.843399 -0.158051 -15.660697 -17.961893 -1.551785 -1.609231 -2.845311 13.985501 -1.885414 -33.122804 110.937100 -89.344489 110.548415 0.000000 0.000000 0.000000 0.832613 0.656769 -0.720781 0.433212 15.671459 12.482913 1.899840 2.620604 0.503791 7.539194 21.112477 38.207576 -173.755791 79.310859 173.272474 0.000000 0.000000 0.000000 
0.988776 99.000259 -2.187401 0.000000 0.000000 0.000000 -5.504449 -5.781905 2.669689 -20.572837 9.264835 8.316667 19.736940 7.653374 1.719189 6.536546 0.235553 -4.433973 0.521498 -0.041860 -1.739031 0.000000 0.000000 0.000000 -5.411050 -4.637582 2.923982 0.458369 -15.097778 -6.027150 21.493181 -9.545461 -5.249233 -15.799624 -6.839144 8.541519 -4.438437 0.215044 -0.425870 0.000000 0.000000 0.000000 -6.076569 -6.032235 2.573714 5.228707 1.433110 -1.236262 1.089408 0.359324 -0.382298 0.729172 0.369491 -0.020704 0.000000 0.000000 0.000000 1.046589 0.737841 -0.611309 1.387380 5.549517 0.238131 4.265362 -10.364174 3.181360 0.000000 0.000000 0.000000 0.932059 0.727633 -0.822861 -0.167414 -15.694851 -17.973904 -1.361869 -1.620147 -2.793292 14.071061 -1.679979 -33.259405 115.201604 -89.239468 114.794976 0.000000 0.000000 0.000000 0.839744 0.633150 -0.691968 0.430586 15.832799 12.587669 1.905997 2.695723 0.667011 7.625748 21.275303 38.397356 -173.700262 79.536528 173.206467 0.000000 0.000000 0.000000 
1.378948 98.744293 -2.154610 0.000000 0.000000 0.000000 -5.478067 -6.106133 2.822930 -20.689913 9.037045 8.003649 20.631678 7.562029 1.818851 5.774733 0.864108 -4.598632 0.470001 -0.031338 -1.818256 0.000000 0.000000 0.000000 -5.420090 -4.714534 3.054824 -0.041859 -15.270293 -6.449366 22.168871 -9.382638 -5.271606 -16.239970 -6.897054 8.352071 -4.165149 0.148013 -0.393610 0.000000 0.000000 0.000000 -6.074226 -6.199890 2.637831 5.326787 1.303902 -1.249909 1.135567 0.241857 -0.305305 0.696969 0.392737 -0.026068 0.000000 0.000000 0.000000 1.007171 0.616144 -0.533402 1.417261 5.530150 0.064204 4.262256 -10.275343 2.911008 0.000000 0.000000 0.000000 0.942288 0.604233 -0.752462 -0.182059 -15.746366 -18.027265 -1.194592 -1.575353 -2.675818 14.416808 -1.274938 -33.397364 132.727187 -88.945934 132.297964 0.000000 0.000000 0.000000 0.848315 0.532719 -0.610518 0.442066 15.953830 12.663891 1.890804 2.731887 0.697762 7.643829 21.791727 38.697564 -173.657491 79.939837 173.191590 0.000000 0.000000 0.000000 
1.781503 98.371216 -2.076668 0.000000 0.000000 0.000000 -5.484375 -6.526261 3.041334 -21.060110 9.028978 7.607435 21.868213 7.487031 1.906367 4.640440 1.763552 -4.821034 0.457486 0.008614 -1.946099 0.000000 0.000000 0.000000 -5.372618 -4.927344 3.250484 -0.879794 -15.284871 -7.047172 23.218086 -9.104541 -5.269157 -16.966922 -7.003861 8.123999 -4.104747 0.133130 -0.380025 0.000000 0.000000 0.000000 -6.020647 -6.467750 2.761029 5.413408 1.105229 -1.308674 1.169797 0.070020 -0.203769 0.649734 0.445099 -0.032502 0.000000 0.000000 0.000000 0.977395 0.441547 -0.430758 1.490583 5.496162 -0.162900 4.170707 -10.208257 2.417584 0.000000 0.000000 0.000000 0.965817 0.421819 -0.646484 -0.195563 -15.813406 -18.104398 -1.095269 -1.520380 -2.568058 14.966239 -0.714641 -33.544671 147.548451 -88.383235 147.095815 0.000000 0.000000 0.000000 0.849431 0.370592 -0.492366 0.479908 16.020127 12.698222 1.839913 2.676304 0.613623 7.526277 22.517223 39.130803 -173.596156 80.434452 173.188298 0.000000 0.000000 0.000000 
2.186741 97.941139 -2.031517 0.000000 0.000000 0.000000 -5.508405 -7.055982 3.275728 -21.594644 9.215809 7.166101 23.202342 7.362835 1.977024 3.357476 2.801959 -5.160721 0.447838 0.063545 -2.051450 0.000000 0.000000 0.000000 -5.284592 -5.371744 3.486192 -2.066059 -15.119978 -7.781856 24.521284 -8.655135 -5.236634 -17.706975 -7.101369 8.034036 -4.241349 0.161374 -0.379420 0.000000 0.000000 0.000000 -5.902321 -6.878265 2.921410 5.455222 0.862760 -1.404109 1.185092 -0.137734 -0.095386 0.653803 0.491962 -0.032234 0.000000 0.000000 0.000000 0.957137 0.231398 -0.323966 1.581719 5.433000 -0.412403 3.954925 -10.191123 1.749440 0.000000 0.000000 0.000000 0.996575 0.199187 -0.527230 -0.206075 -15.890357 -18.193220 -1.070528 -1.496140 -2.504142 15.663833 -0.014897 -33.712796 156.105626 -87.612790 155.626748 0.000000 0.000000 0.000000 0.846657 0.167756 -0.359930 0.548090 16.032715 12.692606 1.776964 2.580482 0.499346 7.260419 23.309335 39.725941 -173.490097 80.973826 173.165485 0.000000 0.000000 0.000000 
2.582276 97.535271 -2.093422 0.000000 0.000000 0.000000 -5.513223 -7.657168 3.483208 -22.182595 9.555842 6.717048 24.493620 7.155828 2.027027 2.158967 3.856197 -5.610137 0.412486 0.119830 -2.077079 0.000000 0.000000 0.000000 -5.172161 -6.079564 3.709314 -3.574479 -14.823150 -8.586648 26.024149 -8.001661 -5.179416 -18.268323 -7.166299 8.174348 -4.452138 0.212641 -0.381398 0.000000 0.000000 0.000000 -5.710318 -7.426183 3.080381 5.429982 0.601809 -1.520069 1.182489 -0.369626 0.005775 0.639126 0.521630 0.009650 0.000000 0.000000 0.000000 0.942964 0.004561 -0.227944 1.648400 5.327468 -0.653527 3.614481 -10.251422 0.968529 0.000000 0.000000 0.000000 1.028600 -0.046914 -0.410873 -0.214759 -15.963248 -18.280603 -1.102910 -1.498373 -2.476503 16.422450 0.779113 -33.900035 160.775031 -86.762691 160.266291 0.000000 0.000000 0.000000 0.836208 -0.057458 -0.232649 0.638703 16.015793 12.644597 1.740167 2.458592 0.383697 6.851274 24.066945 40.473365 -173.308264 81.538511 173.083154 0.000000 0.000000 0.000000 
2.975214 97.203850 -2.234840 0.000000 0.000000 0.000000 -5.480022 -8.293404 3.632116 -22.736977 9.983145 6.321287 25.654650 6.905625 2.061909 1.199910 4.892175 -6.083368 0.350326 0.168366 -2.030742 0.000000 0.000000 0.000000 -5.049463 -7.052022 3.876562 -5.301357 -14.489541 -9.404368 27.662710 -7.171558 -5.114189 -18.626223 -7.237641 8.483296 -4.540647 0.269650 -0.354060 0.000000 0.000000 0.000000 -5.469248 -8.155764 3.203298 5.350879 0.338740 -1.634882 1.169128 -0.619352 0.096408 0.605047 0.528561 0.059129 0.000000 0.000000 0.000000 0.934570 -0.232036 -0.148466 1.672197 5.175295 -0.863968 3.183418 -10.416347 0.144149 0.000000 0.000000 0.000000 1.065316 -0.306582 -0.307241 -0.224299 -16.034800 -18.352052 -1.157700 -1.515359 -2.453030 17.160405 1.646445 -34.097459 163.579861 -85.904853 163.039266 0.000000 0.000000 0.000000 0.822460 -0.298948 -0.118808 0.737809 16.001970 12.571119 1.724184 2.305513 0.291742 6.334810 24.739002 41.335523 -173.016055 82.137382 172.897947 0.000000 0.000000 0.000000 
3.337248 96.941612 -2.435322 0.000000 0.000000 0.000000 -5.418415 -9.028719 3.704154 -23.189532 10.436157 6.054540 26.623480 6.682333 2.093989 0.520552 5.905016 -6.465243 0.276258 0.197444 -1.941973 0.000000 0.000000 0.000000 -4.911262 -8.108521 3.979795 -7.095081 -14.241131 -10.166354 29.283111 -6.234528 -5.069871 -18.832083 -7.388928 8.834739 -4.399016 0.317200 -0.284854 0.000000 0.000000 0.000000 -5.256372 -9.059980 3.271001 5.240236 0.086437 -1.742168 1.150573 -0.885336 0.173048 0.602561 0.512540 0.080960 0.000000 0.000000 0.000000 0.926391 -0.476691 -0.087351 1.659382 4.988064 -1.031171 2.705495 -10.702433 -0.661704 0.000000 0.000000 0.000000 1.111973 -0.573178 -0.216307 -0.228454 -16.108127 -18.388471 -1.218329 -1.495491 -2.443835 17.816733 2.553689 -34.277789 165.475416 -85.084746 164.902896 0.000000 0.000000 0.000000 0.814379 -0.548694 -0.020221 0.825730 16.008602 12.489414 1.710662 2.155014 0.250758 5.780675 25.352122 42.215244 -172.642320 82.767276 172.626201 0.000000 0.000000 0.000000 
3.674597 96.725784 -2.705940 0.000000 0.000000 0.000000 -5.340689 -9.855834 3.716168 -23.513647 10.843695 5.925109 27.343199 6.546898 2.133877 0.056161 6.861596 -6.688690 0.206165 0.203470 -1.829415 0.000000 0.000000 0.000000 -4.772830 -9.148407 4.012276 -8.822460 -14.221764 -10.849213 30.789612 -5.264342 -5.060868 -18.898437 -7.734773 9.144618 -4.053176 0.345021 -0.199588 0.000000 0.000000 0.000000 -5.073583 -10.097153 3.283492 5.117281 -0.154416 -1.840691 1.135144 -1.160448 0.234415 0.608214 0.478759 0.129705 0.000000 0.000000 0.000000 0.919425 -0.726814 -0.038632 1.638232 4.798221 -1.149575 2.233327 -11.112114 -1.410273 0.000000 0.000000 0.000000 1.171730 -0.842715 -0.134603 -0.222075 -16.185168 -18.388941 -1.289171 -1.437474 -2.451783 18.377032 3.452625 -34.420441 166.926681 -84.334449 166.327086 0.000000 0.000000 0.000000 0.816211 -0.802368 0.066807 0.893726 16.037107 12.422463 1.692825 2.038067 0.246469 5.241567 25.933559 43.019294 -172.208740 83.386125 172.284664 0.000000 0.000000 0.000000 
